<svg width="165" height="51" viewBox="0 0 165 51" fill="none" xmlns="http://www.w3.org/2000/svg">
<path d="M2.50582 48H0.276563L3.17209 39.4182H5.93352L8.82905 48H6.59979L4.58423 41.5804H4.51719L2.50582 48ZM2.20831 44.6226H6.86797V46.1982H2.20831V44.6226ZM34.1395 42.5274H32.0444C32.0164 42.3123 31.9592 42.1182 31.8726 41.945C31.786 41.7718 31.6714 41.6237 31.529 41.5008C31.3865 41.3779 31.2175 41.2843 31.0219 41.22C30.8292 41.153 30.6155 41.1195 30.3808 41.1195C29.9646 41.1195 29.6056 41.2214 29.3039 41.4254C29.005 41.6293 28.7745 41.924 28.6125 42.3095C28.4532 42.695 28.3736 43.1616 28.3736 43.7091C28.3736 44.279 28.4546 44.7567 28.6167 45.1422C28.7815 45.5249 29.012 45.814 29.3081 46.0096C29.607 46.2023 29.9604 46.2987 30.3682 46.2987C30.5973 46.2987 30.8054 46.2694 30.9926 46.2107C31.1826 46.1521 31.3488 46.0669 31.4912 45.9551C31.6365 45.8406 31.7552 45.7023 31.8474 45.5403C31.9424 45.3754 32.0081 45.1897 32.0444 44.983L34.1395 44.9955C34.1032 45.3754 33.9929 45.7498 33.8085 46.1185C33.6269 46.4873 33.3769 46.8239 33.0584 47.1284C32.74 47.4301 32.3517 47.6704 31.8935 47.8491C31.4382 48.0279 30.9158 48.1173 30.3263 48.1173C29.5497 48.1173 28.8541 47.9469 28.2395 47.6061C27.6278 47.2625 27.1445 46.7625 26.7897 46.106C26.4349 45.4495 26.2575 44.6505 26.2575 43.7091C26.2575 42.7649 26.4377 41.9645 26.7981 41.308C27.1584 40.6515 27.6459 40.1529 28.2605 39.8121C28.8751 39.4713 29.5637 39.3009 30.3263 39.3009C30.8459 39.3009 31.3264 39.3735 31.7678 39.5187C32.2092 39.6612 32.5975 39.8707 32.9327 40.1473C33.268 40.4211 33.5403 40.7577 33.7498 41.1572C33.9594 41.5567 34.0893 42.0134 34.1395 42.5274ZM53.9638 48H51.7346L54.6301 39.4182H57.3915L60.2871 48H58.0578L56.0422 41.5804H55.9752L53.9638 48ZM53.6663 44.6226H58.326V46.1982H53.6663V44.6226ZM81.3831 48H78.211V39.4182H81.3789C82.2533 39.4182 83.0062 39.59 83.6375 39.9336C84.2717 40.2744 84.7605 40.7661 85.1041 41.4086C85.4477 42.0483 85.6195 42.8138 85.6195 43.7049C85.6195 44.5988 85.4477 45.3671 85.1041 46.0096C84.7633 46.6521 84.2758 47.1452 83.6417 47.4888C83.0076 47.8296 82.2547 48 81.3831 48ZM80.2852 46.2317H81.3035C81.784 46.2317 82.1905 46.1507 82.5229 45.9886C82.8581 45.8238 83.1109 45.557 83.2813 45.1883C83.4545 44.8167 83.5411 44.3223 83.5411 43.7049C83.5411 43.0875 83.4545 42.5959 83.2813 42.2299C83.1081 41.8612 82.8525 41.5958 82.5145 41.4337C82.1793 41.2689 81.7658 41.1865 81.2742 41.1865H80.2852V46.2317ZM103.831 48V39.4182H109.814V41.1027H105.905V42.8626H109.508V44.5513H105.905V46.3155H109.814V48H103.831ZM128.113 39.4182H130.682L132.861 44.7315H132.962L135.141 39.4182H137.709V48H135.69V42.7286H135.618L133.557 47.9455H132.266L130.204 42.6992H130.133V48H128.113V39.4182ZM155.576 39.4182H157.893L159.707 43.0093H159.783L161.597 39.4182H163.914L160.776 45.1338V48H158.714V45.1338L155.576 39.4182Z" fill="black"/>
<path d="M17.36 2.8817L13.67 6.9317C11.72 5.7917 10.32 5.2117 9.47 5.2117C9.14573 5.21466 8.82592 5.28768 8.5325 5.42576C8.23908 5.56384 7.97897 5.76372 7.77 6.0117C7.53754 6.24345 7.35401 6.51956 7.23033 6.82361C7.10664 7.12767 7.04532 7.45348 7.05 7.7817C7.05 9.1417 8.28 10.3117 10.75 11.3117C12.1744 11.8817 13.5435 12.5814 14.84 13.4017C15.8078 14.0688 16.603 14.9566 17.16 15.9917C17.7817 17.0852 18.1026 18.3239 18.09 19.5817C18.0878 20.7572 17.831 21.9183 17.3373 22.9851C16.8436 24.052 16.1247 24.9992 15.23 25.7617C13.3981 27.4793 10.9709 28.4186 8.46 28.3817C5.6 28.3817 2.79 27.0317 0 24.3817L3.91 19.8217C5.65 21.6217 7.29 22.5317 8.81 22.5317C9.20384 22.5093 9.58939 22.4094 9.94459 22.2378C10.2998 22.0663 10.6177 21.8263 10.88 21.5317C11.1756 21.2853 11.417 20.9805 11.5891 20.6363C11.7612 20.2921 11.8603 19.916 11.88 19.5317C11.88 18.0917 10.3633 16.825 7.33 15.7317C6.01823 15.3175 4.77232 14.7181 3.63 13.9517C2.82971 13.3124 2.20086 12.4843 1.8 11.5417C1.28347 10.5249 1.00964 9.40216 1 8.2617C0.951959 7.14952 1.14011 6.03978 1.55206 5.0056C1.96401 3.97141 2.59042 3.03624 3.39 2.2617C4.23756 1.48934 5.22991 0.892783 6.30959 0.506567C7.38928 0.120351 8.53486 -0.0478508 9.68 0.0117C12.5167 -0.071831 15.2733 0.958328 17.36 2.8817ZM45.47 24.2517L48.87 28.1617L44.87 30.7017L41.78 27.0117C39.7899 27.7969 37.6785 28.23 35.54 28.2917C33.6818 28.3527 31.8316 28.0228 30.109 27.3234C28.3863 26.624 26.8298 25.5707 25.54 24.2317C24.218 22.8376 23.1884 21.1931 22.5117 19.3949C21.8351 17.5968 21.5251 15.6815 21.6 13.7617C21.6114 10.2308 22.9748 6.83844 25.41 4.2817C26.6762 2.87414 28.2364 1.76207 29.98 1.0242C31.7236 0.286319 33.608 -0.0593329 35.5 0.0117C37.3345 -0.0343131 39.159 0.296982 40.8602 0.985048C42.5615 1.67311 44.1033 2.70329 45.39 4.0117C46.6991 5.30631 47.7293 6.85517 48.4172 8.56293C49.1051 10.2707 49.4362 12.1012 49.39 13.9417C49.4644 17.7499 48.026 21.4323 45.39 24.1817L45.47 24.2517ZM37.89 22.4517L35 19.0117L38.9 16.4617L41.57 19.6217C42.7546 18.1237 43.336 16.2367 43.2 14.3317C43.3277 12.0135 42.5779 9.73223 41.1 7.9417C40.4068 7.14732 39.5431 6.51979 38.5735 6.10595C37.6038 5.6921 36.5532 5.50264 35.5 5.5517C34.467 5.52299 33.4401 5.71918 32.4904 6.12668C31.5407 6.53418 30.691 7.14325 30 7.9117C28.5243 9.59272 27.751 11.7766 27.84 14.0117C27.7508 16.2705 28.4786 18.4859 29.89 20.2517C30.5114 21.0334 31.3048 21.6611 32.2085 22.086C33.1121 22.511 34.1016 22.7217 35.1 22.7017C36.0351 22.691 36.9679 22.6074 37.89 22.4517ZM54.48 0.3817H60.33V17.2417C60.2672 18.6198 60.7361 19.9695 61.64 21.0117C62.0721 21.484 62.6019 21.8565 63.1925 22.1035C63.783 22.3504 64.4203 22.4658 65.06 22.4417C65.7553 22.4839 66.4517 22.3783 67.1033 22.1318C67.7548 21.8854 68.3467 21.5036 68.84 21.0117C69.7965 19.8835 70.277 18.4276 70.18 16.9517V0.3817H76V18.2317C75.9714 19.9278 75.5612 21.5957 74.8 23.1117C74.0162 24.791 72.6973 26.1627 71.05 27.0117C69.3052 27.9259 67.3596 28.3899 65.39 28.3617C61.62 28.3617 58.85 27.3117 57.1 25.2017C55.4601 23.3733 54.5304 21.0173 54.48 18.5617V0.3817ZM89.8 0.3817H94.39L105.65 27.9517H99.65L97.39 22.5317H86.87L84.71 27.9517H78.77L89.8 0.3817ZM92.1 9.3817L88.89 17.5117H95.42L92.1 9.4117V9.3817ZM109.93 0.3817H119C121.379 0.253658 123.718 1.03676 125.54 2.5717C126.345 3.3217 126.976 4.23806 127.391 5.257C127.805 6.27593 127.993 7.37295 127.94 8.4717C127.909 10.0025 127.533 11.5065 126.84 12.8717C125.97 14.5237 124.526 15.8006 122.78 16.4617L130.48 27.9517H123.68L116.54 17.2917H115.87V27.9517H109.93V0.3817ZM115.93 5.3017V12.4817H117.21C120.303 12.4817 121.85 11.215 121.85 8.6817C121.867 8.20227 121.765 7.72611 121.554 7.29531C121.343 6.86451 121.029 6.49234 120.64 6.2117C119.653 5.5493 118.476 5.22956 117.29 5.3017H115.93ZM135.23 0.3817H150.75V5.8417H141.17V22.4917H154.77V27.9517H135.23V0.3817ZM152.23 11.4817H146.85V16.8517H152.23V11.4817Z" fill="black"/>
<path d="M154.45 0.381836H163.82V27.9518H157.97V5.84184H153.43L154.45 0.381836Z" fill="#ED1C24"/>
</svg>
