<svg width="112" height="296" viewBox="0 0 112 296" fill="none" xmlns="http://www.w3.org/2000/svg">
<path fill-rule="evenodd" clip-rule="evenodd" d="M8.5 5.5C6.567 5.5 5 7.067 5 9V24C5 25.3807 3.88071 26.5 2.5 26.5C1.11929 26.5 0 25.3807 0 24V9C0 4.30558 3.80558 0.500001 8.5 0.500001H24.5C25.8807 0.500001 27 1.61929 27 3C27 4.38071 25.8807 5.5 24.5 5.5H8.5Z" fill="url(#paint0_linear_2_1764)"/>
<path fill-rule="evenodd" clip-rule="evenodd" d="M106.5 8.5C106.5 6.567 104.933 5 103 5L88 5C86.6193 5 85.5 3.88071 85.5 2.5C85.5 1.11929 86.6193 -6.03529e-08 88 0L103 6.55671e-07C107.694 8.6087e-07 111.5 3.80558 111.5 8.5V24.5C111.5 25.8807 110.381 27 109 27C107.619 27 106.5 25.8807 106.5 24.5V8.5Z" fill="url(#paint1_linear_2_1764)"/>
<path fill-rule="evenodd" clip-rule="evenodd" d="M5.5 75.5C5.5 77.433 7.067 79 9 79H24C25.3807 79 26.5 80.1193 26.5 81.5C26.5 82.8807 25.3807 84 24 84H9C4.30558 84 0.5 80.1944 0.5 75.5L0.499999 59.5C0.499999 58.1193 1.61929 57 3 57C4.38071 57 5.5 58.1193 5.5 59.5L5.5 75.5Z" fill="url(#paint2_linear_2_1764)"/>
<path fill-rule="evenodd" clip-rule="evenodd" d="M103.5 79C105.433 79 107 77.433 107 75.5V60.5C107 59.1193 108.119 58 109.5 58C110.881 58 112 59.1193 112 60.5V75.5C112 80.1944 108.194 84 103.5 84H87.5C86.1193 84 85 82.8807 85 81.5C85 80.1193 86.1193 79 87.5 79H103.5Z" fill="url(#paint3_linear_2_1764)"/>
<path d="M39.2796 82.5V69.3384H41.0071L45.7781 79.237L50.5218 69.3384H52.2675V82.4909H50.4578V73.488L46.2077 82.5H45.3394L41.0802 73.488V82.5H39.2796Z" fill="url(#paint4_linear_2_1764)"/>
<path d="M60.4037 82.5V69.3384H62.1312L66.9023 79.237L71.6459 69.3384H73.3916V82.4909H71.5819V73.488L67.3318 82.5H66.4635L62.2043 73.488V82.5H60.4037Z" fill="url(#paint5_linear_2_1764)"/>
<path d="M25.7769 58.4722L25.8047 53.3072L43.216 37.7008C44.623 36.4605 45.5764 35.2756 46.0763 34.1464C46.5946 33.0171 46.8538 31.8878 46.8538 30.7585C46.8538 29.333 46.5391 28.0556 45.9096 26.9263C45.2802 25.7785 44.4101 24.8714 43.2993 24.205C42.1886 23.5385 40.9112 23.2053 39.4672 23.2053C37.9861 23.2053 36.6625 23.557 35.4962 24.2605C34.3484 24.9455 33.4505 25.8619 32.8026 27.0096C32.1546 28.1574 31.8399 29.3978 31.8584 30.7307H25.9158C25.9158 28.1389 26.4989 25.8711 27.6652 23.9273C28.8501 21.9649 30.4699 20.4376 32.5249 19.3453C34.5798 18.2346 36.9309 17.6792 39.5783 17.6792C42.096 17.6792 44.3546 18.2531 46.354 19.4009C48.3533 20.5302 49.9269 22.0852 51.0747 24.0661C52.241 26.047 52.8242 28.3056 52.8242 30.8418C52.8242 32.6746 52.5835 34.2297 52.1022 35.507C51.6209 36.7844 50.8989 37.9693 49.9362 39.0615C48.9735 40.1538 47.7702 41.3386 46.3262 42.616L32.8859 54.6123L32.2472 52.9462H52.8242V58.4722H25.7769Z" fill="url(#paint6_linear_2_1764)"/>
<path d="M76.1716 58.5V51.5299H58.1216V46.0316L71.1176 18.5123H77.7545L64.7585 46.0316H76.1716V35.2016H82.0587V46.0316H86.0297V51.5299H82.0587V58.5H76.1716Z" fill="url(#paint7_linear_2_1764)"/>
<path fill-rule="evenodd" clip-rule="evenodd" d="M8.5 111.5C6.567 111.5 5 113.067 5 115V130C5 131.381 3.88071 132.5 2.5 132.5C1.11929 132.5 0 131.381 0 130V115C0 110.306 3.80558 106.5 8.5 106.5H24.5C25.8807 106.5 27 107.619 27 109C27 110.381 25.8807 111.5 24.5 111.5H8.5Z" fill="url(#paint8_linear_2_1764)"/>
<path fill-rule="evenodd" clip-rule="evenodd" d="M106.5 114.5C106.5 112.567 104.933 111 103 111H88C86.6193 111 85.5 109.881 85.5 108.5C85.5 107.119 86.6193 106 88 106H103C107.694 106 111.5 109.806 111.5 114.5V130.5C111.5 131.881 110.381 133 109 133C107.619 133 106.5 131.881 106.5 130.5V114.5Z" fill="url(#paint9_linear_2_1764)"/>
<path fill-rule="evenodd" clip-rule="evenodd" d="M5.5 181.5C5.5 183.433 7.067 185 9 185H24C25.3807 185 26.5 186.119 26.5 187.5C26.5 188.881 25.3807 190 24 190H9C4.30558 190 0.5 186.194 0.5 181.5L0.499999 165.5C0.499999 164.119 1.61929 163 3 163C4.38071 163 5.5 164.119 5.5 165.5L5.5 181.5Z" fill="url(#paint10_linear_2_1764)"/>
<path fill-rule="evenodd" clip-rule="evenodd" d="M103.5 185C105.433 185 107 183.433 107 181.5V166.5C107 165.119 108.119 164 109.5 164C110.881 164 112 165.119 112 166.5V181.5C112 186.194 108.194 190 103.5 190H87.5C86.1193 190 85 188.881 85 187.5C85 186.119 86.1193 185 87.5 185H103.5Z" fill="url(#paint11_linear_2_1764)"/>
<path d="M39.2796 188.5V175.338H41.0071L45.7781 185.237L50.5218 175.338H52.2675V188.491H50.4578V179.488L46.2077 188.5H45.3394L41.0802 179.488V188.5H39.2796Z" fill="url(#paint12_linear_2_1764)"/>
<path d="M60.4037 188.5V175.338H62.1312L66.9023 185.237L71.6459 175.338H73.3916V188.491H71.5819V179.488L67.3318 188.5H66.4635L62.2043 179.488V188.5H60.4037Z" fill="url(#paint13_linear_2_1764)"/>
<path d="M25.7769 164.472L25.8047 159.307L43.216 143.701C44.623 142.46 45.5764 141.276 46.0763 140.146C46.5946 139.017 46.8538 137.888 46.8538 136.758C46.8538 135.333 46.5391 134.056 45.9096 132.926C45.2802 131.779 44.4101 130.871 43.2993 130.205C42.1886 129.538 40.9112 129.205 39.4672 129.205C37.9861 129.205 36.6625 129.557 35.4962 130.26C34.3484 130.945 33.4505 131.862 32.8026 133.01C32.1546 134.157 31.8399 135.398 31.8584 136.731H25.9158C25.9158 134.139 26.4989 131.871 27.6652 129.927C28.8501 127.965 30.4699 126.438 32.5249 125.345C34.5798 124.235 36.9309 123.679 39.5783 123.679C42.096 123.679 44.3546 124.253 46.354 125.401C48.3533 126.53 49.9269 128.085 51.0747 130.066C52.241 132.047 52.8242 134.306 52.8242 136.842C52.8242 138.675 52.5835 140.23 52.1022 141.507C51.6209 142.784 50.8989 143.969 49.9362 145.062C48.9735 146.154 47.7702 147.339 46.3262 148.616L32.8859 160.612L32.2472 158.946H52.8242V164.472H25.7769Z" fill="url(#paint14_linear_2_1764)"/>
<path d="M73.1188 165.333C70.5084 165.333 68.1943 164.815 66.1764 163.778C64.177 162.723 62.6035 161.26 61.4557 159.39C60.3264 157.521 59.7617 155.355 59.7617 152.892C59.7617 150.597 60.2986 148.496 61.3724 146.589C62.4461 144.682 64.0475 143.182 66.1764 142.09L66.0654 144.09C64.3622 143.034 63.0478 141.72 62.1221 140.146C61.215 138.554 60.7614 136.777 60.7614 134.815C60.7614 132.538 61.289 130.566 62.3443 128.9C63.3995 127.234 64.8528 125.947 66.704 125.04C68.5738 124.133 70.7121 123.679 73.1188 123.679C75.5254 123.679 77.6544 124.133 79.5057 125.04C81.357 125.947 82.8102 127.234 83.8655 128.9C84.9207 130.566 85.4483 132.538 85.4483 134.815C85.4483 136.777 85.0133 138.545 84.1432 140.119C83.273 141.692 81.9401 143.016 80.1444 144.09L80.0611 142.146C82.1715 143.182 83.7729 144.663 84.8652 146.589C85.9574 148.496 86.5035 150.597 86.5035 152.892C86.5035 155.355 85.9296 157.521 84.7818 159.39C83.634 161.26 82.0512 162.723 80.0333 163.778C78.0154 164.815 75.7105 165.333 73.1188 165.333ZM73.1188 159.807C75.2662 159.807 77.0065 159.224 78.3394 158.058C79.6723 156.873 80.3388 155.151 80.3388 152.892C80.3388 150.634 79.6723 148.912 78.3394 147.727C77.025 146.524 75.2848 145.922 73.1188 145.922C70.9528 145.922 69.2033 146.524 67.8704 147.727C66.5559 148.912 65.8987 150.634 65.8987 152.892C65.8987 155.151 66.5652 156.873 67.8981 158.058C69.2311 159.224 70.9713 159.807 73.1188 159.807ZM73.1188 140.369C74.9515 140.369 76.4326 139.915 77.5618 139.008C78.7096 138.082 79.2835 136.684 79.2835 134.815C79.2835 132.945 78.7096 131.547 77.5618 130.621C76.4326 129.677 74.9515 129.205 73.1188 129.205C71.286 129.205 69.7957 129.677 68.6479 130.621C67.5001 131.547 66.9262 132.945 66.9262 134.815C66.9262 136.684 67.5001 138.082 68.6479 139.008C69.7957 139.915 71.286 140.369 73.1188 140.369Z" fill="url(#paint15_linear_2_1764)"/>
<path fill-rule="evenodd" clip-rule="evenodd" d="M8.5 217.5C6.567 217.5 5 219.067 5 221V236C5 237.381 3.88071 238.5 2.5 238.5C1.11929 238.5 0 237.381 0 236V221C0 216.306 3.80558 212.5 8.5 212.5H24.5C25.8807 212.5 27 213.619 27 215C27 216.381 25.8807 217.5 24.5 217.5H8.5Z" fill="url(#paint16_linear_2_1764)"/>
<path fill-rule="evenodd" clip-rule="evenodd" d="M106.5 220.5C106.5 218.567 104.933 217 103 217H88C86.6193 217 85.5 215.881 85.5 214.5C85.5 213.119 86.6193 212 88 212H103C107.694 212 111.5 215.806 111.5 220.5V236.5C111.5 237.881 110.381 239 109 239C107.619 239 106.5 237.881 106.5 236.5V220.5Z" fill="url(#paint17_linear_2_1764)"/>
<path fill-rule="evenodd" clip-rule="evenodd" d="M5.5 287.5C5.5 289.433 7.067 291 9 291H24C25.3807 291 26.5 292.119 26.5 293.5C26.5 294.881 25.3807 296 24 296H9C4.30558 296 0.5 292.194 0.5 287.5L0.499999 271.5C0.499999 270.119 1.61929 269 3 269C4.38071 269 5.5 270.119 5.5 271.5L5.5 287.5Z" fill="url(#paint18_linear_2_1764)"/>
<path fill-rule="evenodd" clip-rule="evenodd" d="M103.5 291C105.433 291 107 289.433 107 287.5V272.5C107 271.119 108.119 270 109.5 270C110.881 270 112 271.119 112 272.5V287.5C112 292.194 108.194 296 103.5 296H87.5C86.1193 296 85 294.881 85 293.5C85 292.119 86.1193 291 87.5 291H103.5Z" fill="url(#paint19_linear_2_1764)"/>
<path d="M39.2796 294.5V281.338H41.0071L45.7781 291.237L50.5218 281.338H52.2675V294.491H50.4578V285.488L46.2077 294.5H45.3394L41.0802 285.488V294.5H39.2796Z" fill="url(#paint20_linear_2_1764)"/>
<path d="M60.4037 294.5V281.338H62.1312L66.9023 291.237L71.6459 281.338H73.3916V294.491H71.5819V285.488L67.3318 294.5H66.4635L62.2043 285.488V294.5H60.4037Z" fill="url(#paint21_linear_2_1764)"/>
<path d="M38.0787 271.25C36.0978 271.25 34.2373 270.88 32.4971 270.139C30.7569 269.38 29.2481 268.306 27.9707 266.918C26.7118 265.529 25.7954 263.891 25.2215 262.003L30.8309 260.448C31.3678 262.169 32.3027 263.493 33.6356 264.419C34.9686 265.326 36.4496 265.77 38.0787 265.751C39.5412 265.733 40.8279 265.39 41.9386 264.724C43.0494 264.058 43.9195 263.16 44.549 262.03C45.1784 260.883 45.4931 259.568 45.4931 258.087C45.4931 255.866 44.7989 254.033 43.4104 252.589C42.0405 251.145 40.2447 250.423 38.0232 250.423C37.3937 250.423 36.7458 250.515 36.0793 250.701C35.4314 250.886 34.8205 251.126 34.2466 251.423L31.5252 246.841L45.632 234.372L46.2429 236.038H26.8044V230.512H50.8526V236.038L39.1339 247.313L39.0784 245.424C41.5962 245.424 43.7807 245.989 45.632 247.118C47.4832 248.229 48.9087 249.747 49.9084 251.672C50.9266 253.579 51.4357 255.717 51.4357 258.087C51.4357 260.642 50.8341 262.91 49.6307 264.891C48.4459 266.871 46.8445 268.427 44.8266 269.556C42.8273 270.685 40.5779 271.25 38.0787 271.25Z" fill="url(#paint22_linear_2_1764)"/>
<path d="M71.361 271.333C69.3061 271.333 67.39 270.917 65.6128 270.083C63.8541 269.232 62.3453 268.066 61.0864 266.585C59.8275 265.085 58.9297 263.363 58.3928 261.419L63.9744 259.92C64.2891 261.105 64.826 262.132 65.585 263.002C66.3626 263.872 67.2697 264.548 68.3064 265.029C69.3431 265.492 70.4169 265.724 71.5277 265.724C72.9902 265.724 74.3139 265.372 75.4987 264.668C76.702 263.965 77.6462 263.021 78.3311 261.836C79.0346 260.651 79.3864 259.346 79.3864 257.921C79.3864 256.458 79.0254 255.134 78.3034 253.95C77.5999 252.765 76.6465 251.83 75.4431 251.145C74.2583 250.441 72.9532 250.09 71.5277 250.09C69.8985 250.09 68.5193 250.414 67.39 251.062C66.2608 251.709 65.3814 252.459 64.752 253.311L59.698 251.534L60.9198 230.512H82.4965V235.983H63.8911L66.2515 233.789L65.2796 249.534L64.141 248.062C65.1963 247.007 66.4551 246.202 67.9177 245.646C69.3802 245.091 70.8334 244.813 72.2774 244.813C74.7582 244.813 76.9704 245.387 78.9143 246.535C80.8767 247.683 82.4225 249.247 83.5518 251.228C84.681 253.19 85.2457 255.421 85.2457 257.921C85.2457 260.401 84.607 262.66 83.3296 264.696C82.0522 266.714 80.3583 268.325 78.2478 269.528C76.1374 270.731 73.8418 271.333 71.361 271.333Z" fill="url(#paint23_linear_2_1764)"/>
<defs>
<linearGradient id="paint0_linear_2_1764" x1="56" y1="0" x2="56" y2="296" gradientUnits="userSpaceOnUse">
<stop stop-color="#BAB8B9"/>
<stop offset="1" stop-color="#6C6C6C"/>
</linearGradient>
<linearGradient id="paint1_linear_2_1764" x1="56" y1="0" x2="56" y2="296" gradientUnits="userSpaceOnUse">
<stop stop-color="#BAB8B9"/>
<stop offset="1" stop-color="#6C6C6C"/>
</linearGradient>
<linearGradient id="paint2_linear_2_1764" x1="56" y1="0" x2="56" y2="296" gradientUnits="userSpaceOnUse">
<stop stop-color="#BAB8B9"/>
<stop offset="1" stop-color="#6C6C6C"/>
</linearGradient>
<linearGradient id="paint3_linear_2_1764" x1="56" y1="0" x2="56" y2="296" gradientUnits="userSpaceOnUse">
<stop stop-color="#BAB8B9"/>
<stop offset="1" stop-color="#6C6C6C"/>
</linearGradient>
<linearGradient id="paint4_linear_2_1764" x1="56" y1="0" x2="56" y2="296" gradientUnits="userSpaceOnUse">
<stop stop-color="#BAB8B9"/>
<stop offset="1" stop-color="#6C6C6C"/>
</linearGradient>
<linearGradient id="paint5_linear_2_1764" x1="56" y1="0" x2="56" y2="296" gradientUnits="userSpaceOnUse">
<stop stop-color="#BAB8B9"/>
<stop offset="1" stop-color="#6C6C6C"/>
</linearGradient>
<linearGradient id="paint6_linear_2_1764" x1="56" y1="0" x2="56" y2="296" gradientUnits="userSpaceOnUse">
<stop stop-color="#BAB8B9"/>
<stop offset="1" stop-color="#6C6C6C"/>
</linearGradient>
<linearGradient id="paint7_linear_2_1764" x1="56" y1="0" x2="56" y2="296" gradientUnits="userSpaceOnUse">
<stop stop-color="#BAB8B9"/>
<stop offset="1" stop-color="#6C6C6C"/>
</linearGradient>
<linearGradient id="paint8_linear_2_1764" x1="56" y1="0" x2="56" y2="296" gradientUnits="userSpaceOnUse">
<stop stop-color="#BAB8B9"/>
<stop offset="1" stop-color="#6C6C6C"/>
</linearGradient>
<linearGradient id="paint9_linear_2_1764" x1="56" y1="0" x2="56" y2="296" gradientUnits="userSpaceOnUse">
<stop stop-color="#BAB8B9"/>
<stop offset="1" stop-color="#6C6C6C"/>
</linearGradient>
<linearGradient id="paint10_linear_2_1764" x1="56" y1="0" x2="56" y2="296" gradientUnits="userSpaceOnUse">
<stop stop-color="#BAB8B9"/>
<stop offset="1" stop-color="#6C6C6C"/>
</linearGradient>
<linearGradient id="paint11_linear_2_1764" x1="56" y1="0" x2="56" y2="296" gradientUnits="userSpaceOnUse">
<stop stop-color="#BAB8B9"/>
<stop offset="1" stop-color="#6C6C6C"/>
</linearGradient>
<linearGradient id="paint12_linear_2_1764" x1="56" y1="0" x2="56" y2="296" gradientUnits="userSpaceOnUse">
<stop stop-color="#BAB8B9"/>
<stop offset="1" stop-color="#6C6C6C"/>
</linearGradient>
<linearGradient id="paint13_linear_2_1764" x1="56" y1="0" x2="56" y2="296" gradientUnits="userSpaceOnUse">
<stop stop-color="#BAB8B9"/>
<stop offset="1" stop-color="#6C6C6C"/>
</linearGradient>
<linearGradient id="paint14_linear_2_1764" x1="56" y1="0" x2="56" y2="296" gradientUnits="userSpaceOnUse">
<stop stop-color="#BAB8B9"/>
<stop offset="1" stop-color="#6C6C6C"/>
</linearGradient>
<linearGradient id="paint15_linear_2_1764" x1="56" y1="0" x2="56" y2="296" gradientUnits="userSpaceOnUse">
<stop stop-color="#BAB8B9"/>
<stop offset="1" stop-color="#6C6C6C"/>
</linearGradient>
<linearGradient id="paint16_linear_2_1764" x1="56" y1="0" x2="56" y2="296" gradientUnits="userSpaceOnUse">
<stop stop-color="#BAB8B9"/>
<stop offset="1" stop-color="#6C6C6C"/>
</linearGradient>
<linearGradient id="paint17_linear_2_1764" x1="56" y1="0" x2="56" y2="296" gradientUnits="userSpaceOnUse">
<stop stop-color="#BAB8B9"/>
<stop offset="1" stop-color="#6C6C6C"/>
</linearGradient>
<linearGradient id="paint18_linear_2_1764" x1="56" y1="0" x2="56" y2="296" gradientUnits="userSpaceOnUse">
<stop stop-color="#BAB8B9"/>
<stop offset="1" stop-color="#6C6C6C"/>
</linearGradient>
<linearGradient id="paint19_linear_2_1764" x1="56" y1="0" x2="56" y2="296" gradientUnits="userSpaceOnUse">
<stop stop-color="#BAB8B9"/>
<stop offset="1" stop-color="#6C6C6C"/>
</linearGradient>
<linearGradient id="paint20_linear_2_1764" x1="56" y1="0" x2="56" y2="296" gradientUnits="userSpaceOnUse">
<stop stop-color="#BAB8B9"/>
<stop offset="1" stop-color="#6C6C6C"/>
</linearGradient>
<linearGradient id="paint21_linear_2_1764" x1="56" y1="0" x2="56" y2="296" gradientUnits="userSpaceOnUse">
<stop stop-color="#BAB8B9"/>
<stop offset="1" stop-color="#6C6C6C"/>
</linearGradient>
<linearGradient id="paint22_linear_2_1764" x1="56" y1="0" x2="56" y2="296" gradientUnits="userSpaceOnUse">
<stop stop-color="#BAB8B9"/>
<stop offset="1" stop-color="#6C6C6C"/>
</linearGradient>
<linearGradient id="paint23_linear_2_1764" x1="56" y1="0" x2="56" y2="296" gradientUnits="userSpaceOnUse">
<stop stop-color="#BAB8B9"/>
<stop offset="1" stop-color="#6C6C6C"/>
</linearGradient>
</defs>
</svg>
