<svg width="560" height="138" viewBox="0 0 560 138" fill="none" xmlns="http://www.w3.org/2000/svg">
<rect x="16" y="33" width="10" height="75" fill="url(#paint0_linear_209_88)"/>
<rect x="16" y="33" width="10" height="75" fill="url(#paint1_linear_209_88)"/>
<g opacity="0.7">
<rect x="10" y="38" width="8" height="65" fill="url(#paint2_linear_209_88)"/>
<rect x="10" y="38" width="8" height="65" fill="url(#paint3_linear_209_88)"/>
</g>
<g opacity="0.5">
<rect x="4" y="42" width="8" height="57" fill="url(#paint4_linear_209_88)"/>
<rect x="4" y="42" width="8" height="57" fill="url(#paint5_linear_209_88)"/>
</g>
<g opacity="0.3">
<rect y="46" width="6" height="49" fill="url(#paint6_linear_209_88)"/>
<rect y="46" width="6" height="49" fill="url(#paint7_linear_209_88)"/>
</g>
<path d="M544 109L534 109L534 53V53C539.523 53 544 57.4772 544 63L544 109Z" fill="url(#paint8_linear_209_88)"/>
<path d="M544 109L534 109L534 53V53C539.523 53 544 57.4772 544 63L544 109Z" fill="url(#paint9_linear_209_88)"/>
<g opacity="0.7">
<path d="M550 105L542 105L542 57V57C546.418 57 550 60.5817 550 65L550 105Z" fill="url(#paint10_linear_209_88)"/>
<path d="M550 105L542 105L542 57V57C546.418 57 550 60.5817 550 65L550 105Z" fill="url(#paint11_linear_209_88)"/>
</g>
<g opacity="0.5">
<path d="M556 102L548 102L548 60V60C552.418 60 556 63.5817 556 68L556 102Z" fill="url(#paint12_linear_209_88)"/>
<path d="M556 102L548 102L548 60V60C552.418 60 556 63.5817 556 68L556 102Z" fill="url(#paint13_linear_209_88)"/>
</g>
<g opacity="0.3">
<path d="M560 99L554 99L554 63V63C557.314 63 560 65.6863 560 69L560 99Z" fill="url(#paint14_linear_209_88)"/>
<path d="M560 99L554 99L554 63V63C557.314 63 560 65.6863 560 69L560 99Z" fill="url(#paint15_linear_209_88)"/>
</g>
<path d="M23.1594 110V28.6531H54.5031C70.9641 28.6531 82.1825 39.5332 82.1825 55.8251V55.9378C82.1825 72.1734 70.9641 83.1099 54.5031 83.1099H37.7038V110H23.1594ZM50.8952 40.5479H37.7038V71.3842H50.8952C61.3243 71.3842 67.4126 65.7468 67.4126 55.9942V55.8815C67.4126 46.1289 61.3243 40.5479 50.8952 40.5479ZM91.4277 110V50.2441H105.465V60.5605H105.747C107.607 53.3447 112.568 49.0039 119.445 49.0039C121.193 49.0039 122.828 49.2858 123.899 49.5676V62.2517C122.715 61.8007 120.573 61.4624 118.205 61.4624C110.256 61.4624 105.465 66.4797 105.465 75.3303V110H91.4277ZM155.299 111.184C137.71 111.184 126.379 99.4582 126.379 80.1221V80.0093C126.379 60.8423 137.879 49.0039 155.242 49.0039C172.662 49.0039 184.218 60.7296 184.218 80.0093V80.1221C184.218 99.5145 172.831 111.184 155.299 111.184ZM155.355 99.8528C164.206 99.8528 169.9 92.637 169.9 80.1221V80.0093C169.9 67.5508 164.149 60.3913 155.242 60.3913C146.505 60.3913 140.698 67.6071 140.698 80.0093V80.1221C140.698 92.6933 146.392 99.8528 155.355 99.8528ZM194.648 110V28.6531H211.447L236.364 90.7766H236.759L261.676 28.6531H278.475V110H265.396V52.1608H264.945L241.494 110H231.629L208.177 52.1608H207.783V110H194.648ZM317.88 111.184C300.291 111.184 288.96 99.4582 288.96 80.1221V80.0093C288.96 60.8423 300.461 49.0039 317.824 49.0039C335.243 49.0039 346.8 60.7296 346.8 80.0093V80.1221C346.8 99.5145 335.412 111.184 317.88 111.184ZM317.936 99.8528C326.787 99.8528 332.481 92.637 332.481 80.1221V80.0093C332.481 67.5508 326.731 60.3913 317.824 60.3913C309.086 60.3913 303.279 67.6071 303.279 80.0093V80.1221C303.279 92.6933 308.973 99.8528 317.936 99.8528ZM378.03 111.184C365.516 111.184 359.596 106.11 359.596 93.8208V61.0678H351.14V50.2441H359.596V35.0797H373.859V50.2441H384.964V61.0678H373.859V92.637C373.859 98.4998 376.452 100.36 381.582 100.36C382.935 100.36 384.006 100.191 384.964 100.135V110.676C383.33 110.902 380.849 111.184 378.03 111.184ZM402.046 41.6754C397.648 41.6754 394.21 38.1802 394.21 34.0086C394.21 29.7242 397.648 26.2854 402.046 26.2854C406.443 26.2854 409.825 29.7242 409.825 34.0086C409.825 38.1802 406.443 41.6754 402.046 41.6754ZM394.999 110V50.2441H409.036V110H394.999ZM447.426 111.184C429.838 111.184 418.507 99.4582 418.507 80.1221V80.0093C418.507 60.8423 430.007 49.0039 447.37 49.0039C464.789 49.0039 476.346 60.7296 476.346 80.0093V80.1221C476.346 99.5145 464.958 111.184 447.426 111.184ZM447.483 99.8528C456.333 99.8528 462.027 92.637 462.027 80.1221V80.0093C462.027 67.5508 456.277 60.3913 447.37 60.3913C438.632 60.3913 432.825 67.6071 432.825 80.0093V80.1221C432.825 92.6933 438.519 99.8528 447.483 99.8528ZM485.366 110V50.2441H499.403V59.6021H499.684C502.785 53.1755 508.873 49.0039 517.949 49.0039C531.084 49.0039 538.582 57.4599 538.582 71.3278V110H524.545V74.1465C524.545 65.6341 520.599 60.8423 512.594 60.8423C504.533 60.8423 499.403 66.7052 499.403 75.3303V110H485.366Z" fill="url(#paint16_linear_209_88)"/>
<defs>
<linearGradient id="paint0_linear_209_88" x1="15" y1="71" x2="27" y2="71" gradientUnits="userSpaceOnUse">
<stop stop-color="#73726E"/>
<stop offset="1" stop-color="#73726E" stop-opacity="0"/>
</linearGradient>
<linearGradient id="paint1_linear_209_88" x1="15" y1="71" x2="27" y2="71" gradientUnits="userSpaceOnUse">
<stop stop-color="#73726E"/>
<stop offset="1" stop-color="#73726E" stop-opacity="0"/>
</linearGradient>
<linearGradient id="paint2_linear_209_88" x1="9.2" y1="70.9333" x2="18.8" y2="70.9333" gradientUnits="userSpaceOnUse">
<stop stop-color="#73726E"/>
<stop offset="1" stop-color="#73726E" stop-opacity="0"/>
</linearGradient>
<linearGradient id="paint3_linear_209_88" x1="9.2" y1="70.9333" x2="18.8" y2="70.9333" gradientUnits="userSpaceOnUse">
<stop stop-color="#73726E"/>
<stop offset="1" stop-color="#73726E" stop-opacity="0"/>
</linearGradient>
<linearGradient id="paint4_linear_209_88" x1="3.2" y1="70.88" x2="12.8" y2="70.88" gradientUnits="userSpaceOnUse">
<stop stop-color="#73726E"/>
<stop offset="1" stop-color="#73726E" stop-opacity="0"/>
</linearGradient>
<linearGradient id="paint5_linear_209_88" x1="3.2" y1="70.88" x2="12.8" y2="70.88" gradientUnits="userSpaceOnUse">
<stop stop-color="#73726E"/>
<stop offset="1" stop-color="#73726E" stop-opacity="0"/>
</linearGradient>
<linearGradient id="paint6_linear_209_88" x1="-0.6" y1="70.8267" x2="6.6" y2="70.8267" gradientUnits="userSpaceOnUse">
<stop stop-color="#73726E"/>
<stop offset="1" stop-color="#73726E" stop-opacity="0"/>
</linearGradient>
<linearGradient id="paint7_linear_209_88" x1="-0.6" y1="70.8267" x2="6.6" y2="70.8267" gradientUnits="userSpaceOnUse">
<stop stop-color="#73726E"/>
<stop offset="1" stop-color="#73726E" stop-opacity="0"/>
</linearGradient>
<linearGradient id="paint8_linear_209_88" x1="545" y1="80.6267" x2="533" y2="80.6267" gradientUnits="userSpaceOnUse">
<stop stop-color="#73726E"/>
<stop offset="1" stop-color="#73726E" stop-opacity="0"/>
</linearGradient>
<linearGradient id="paint9_linear_209_88" x1="545" y1="80.6267" x2="533" y2="80.6267" gradientUnits="userSpaceOnUse">
<stop stop-color="#73726E"/>
<stop offset="1" stop-color="#73726E" stop-opacity="0"/>
</linearGradient>
<linearGradient id="paint10_linear_209_88" x1="550.8" y1="80.68" x2="541.2" y2="80.68" gradientUnits="userSpaceOnUse">
<stop stop-color="#73726E"/>
<stop offset="1" stop-color="#73726E" stop-opacity="0"/>
</linearGradient>
<linearGradient id="paint11_linear_209_88" x1="550.8" y1="80.68" x2="541.2" y2="80.68" gradientUnits="userSpaceOnUse">
<stop stop-color="#73726E"/>
<stop offset="1" stop-color="#73726E" stop-opacity="0"/>
</linearGradient>
<linearGradient id="paint12_linear_209_88" x1="556.8" y1="80.72" x2="547.2" y2="80.72" gradientUnits="userSpaceOnUse">
<stop stop-color="#73726E"/>
<stop offset="1" stop-color="#73726E" stop-opacity="0"/>
</linearGradient>
<linearGradient id="paint13_linear_209_88" x1="556.8" y1="80.72" x2="547.2" y2="80.72" gradientUnits="userSpaceOnUse">
<stop stop-color="#73726E"/>
<stop offset="1" stop-color="#73726E" stop-opacity="0"/>
</linearGradient>
<linearGradient id="paint14_linear_209_88" x1="560.6" y1="80.76" x2="553.4" y2="80.76" gradientUnits="userSpaceOnUse">
<stop stop-color="#73726E"/>
<stop offset="1" stop-color="#73726E" stop-opacity="0"/>
</linearGradient>
<linearGradient id="paint15_linear_209_88" x1="560.6" y1="80.76" x2="553.4" y2="80.76" gradientUnits="userSpaceOnUse">
<stop stop-color="#73726E"/>
<stop offset="1" stop-color="#73726E" stop-opacity="0"/>
</linearGradient>
<linearGradient id="paint16_linear_209_88" x1="518.415" y1="36.6562" x2="121.179" y2="323.397" gradientUnits="userSpaceOnUse">
<stop stop-color="#D0CFCA"/>
<stop offset="1" stop-color="#666561"/>
</linearGradient>
</defs>
</svg>
